<svg width="260" height="106" viewBox="0 0 260 106" fill="none" xmlns="http://www.w3.org/2000/svg">
<rect width="14.1245" height="14.1245" transform="matrix(-0.717792 0.696258 -0.717792 -0.696258 259.243 9.8343)" fill="#D41D24"/>
<rect width="14.1245" height="14.1245" transform="matrix(-0.717792 0.696258 -0.717792 -0.696258 192.333 9.8343)" fill="#D41D24"/>
<rect width="14.1245" height="14.1245" transform="matrix(-0.717792 0.696258 -0.717792 -0.696258 127.812 9.8343)" fill="#D41D24"/>
<rect width="14.1245" height="14.1245" transform="matrix(-0.717792 0.696258 -0.717792 -0.696258 60.9012 9.8343)" fill="#D41D24"/>
<rect width="14.1245" height="14.1245" transform="matrix(-0.717792 0.696258 -0.717792 -0.696258 259.243 95.9968)" fill="#D41D24"/>
<rect width="14.1245" height="14.1245" transform="matrix(-0.717792 0.696258 -0.717792 -0.696258 192.333 95.9968)" fill="#D41D24"/>
<rect width="14.1245" height="14.1245" transform="matrix(-0.717792 0.696258 -0.717792 -0.696258 127.812 95.9968)" fill="#D41D24"/>
<rect width="14.1245" height="14.1245" transform="matrix(-0.717792 0.696258 -0.717792 -0.696258 60.9012 95.9968)" fill="#D41D24"/>
<rect width="14.1245" height="14.1245" transform="matrix(-0.717792 0.696258 -0.717792 -0.696258 218.619 51.9555)" fill="#D41D24"/>
<rect width="14.1245" height="14.1245" transform="matrix(-0.717792 0.696258 -0.717792 -0.696258 151.708 51.9555)" fill="#D41D24"/>
<rect width="14.1245" height="14.1245" transform="matrix(-0.717792 0.696258 -0.717792 -0.696258 87.1875 51.9555)" fill="#D41D24"/>
<rect width="14.1245" height="14.1245" transform="matrix(-0.717792 0.696258 -0.717792 -0.696258 20.2769 51.9555)" fill="#D41D24"/>
</svg>
